# xmcd CD database file
#
# Track frame offsets:
#	150
#	22344
#	43228
#	60149
#	78048
#	94145
#	123132
#	144766
#	157801
#	175999
#	191992
#	212191
#
# Disc length: 3023 seconds
#
# Revision: 0
# Processed by: cddbd v1.5.2PL0 Copyright (c) Steve Scherf et al.
# Submitted via: CDex 1.51
#
DISCID=9a0bcd0c
DTITLE=VANCE KELLY - HIS BACKSTREET BLUES BAND - Chicago Blues Session Volume 50-What Three Old Ladies Can Do
DYEAR=1900
DGENRE=Blues
TTITLE0=What Three Old Ladies Can Do
TTITLE1=Just Because
TTITLE2=Twenty Four Hours
TTITLE3=Foxy
TTITLE4=You Are Mine, Now I'm Forever Your's
TTITLE5=Highway Here I Come
TTITLE6=Candy Licker
TTITLE7=Don't Cry No More
TTITLE8=Ain't Doing Too Bad
TTITLE9=Somethin' About You Girl
TTITLE10=Jamm In
TTITLE11=Mon's Apple Pie
EXTD=
EXTT0=
EXTT1=
EXTT2=
EXTT3=
EXTT4=
EXTT5=
EXTT6=
EXTT7=
EXTT8=
EXTT9=
EXTT10=
EXTT11=
PLAYORDER=
